<?xml version="1.0" encoding="UTF-8" standalone="no"?>
<!-- Created with Inkscape (http://www.inkscape.org/) -->

<svg
   width="133.64368mm"
   height="133.64352mm"
   viewBox="0 0 133.64368 133.64352"
   version="1.1"
   id="svg5"
   xml:space="preserve"
   xmlns:inkscape="http://www.inkscape.org/namespaces/inkscape"
   xmlns:sodipodi="http://sodipodi.sourceforge.net/DTD/sodipodi-0.dtd"
   xmlns="http://www.w3.org/2000/svg"
   xmlns:svg="http://www.w3.org/2000/svg"><sodipodi:namedview
     id="namedview7"
     pagecolor="#ffffff"
     bordercolor="#999999"
     borderopacity="1"
     inkscape:showpageshadow="0"
     inkscape:pageopacity="0"
     inkscape:pagecheckerboard="0"
     inkscape:deskcolor="#d1d1d1"
     inkscape:document-units="mm"
     showgrid="false" /><defs
     id="defs2"><clipPath
       clipPathUnits="userSpaceOnUse"
       id="clipPath1370"><path
         id="path1372"
         style="fill:#ff0000;fill-opacity:1;fill-rule:nonzero;stroke:none;stroke-width:0.75"
         d="M 195.19842,55.943447 V 434.77547 H 574.03191 V 55.943447 Z m 242.9458,89.005373 c 11.79927,-0.002 15.02047,14.15456 -0.17139,24.50097 -2.55635,1.74101 -4.84467,3.83972 -7.1206,5.9253 -0.59937,0.57111 -1.19388,1.14803 -1.79297,1.71972 -1.08037,1.4999 -2.15471,3.00493 -3.20947,4.52344 -2.03131,2.9878 -4.08063,5.96325 -5.99707,9.02637 -10.02626,16.02534 -25.02801,10.97972 -24.0293,-1.94385 -2.54269,-0.12914 -3.49362,-2.02605 -1.18359,-7.45899 0.35622,-0.8378 0.65794,-1.70148 1.06933,-2.51367 1.79589,-3.54562 4.71862,-6.37595 7.32861,-9.30615 2.59308,-2.71425 5.27419,-5.34203 7.97901,-7.94531 1.29336,-1.78387 2.59721,-3.56001 3.9126,-5.32764 4.82816,-6.48807 10.30835,-9.20696 14.85937,-9.20801 h 0.006 c 3.09155,-1.37379 5.90633,-1.99189 8.34962,-1.99218 z" /></clipPath><clipPath
       clipPathUnits="userSpaceOnUse"
       id="clipPath2896"><path
         id="path2898"
         style="fill:#ff0000;fill-opacity:1;fill-rule:nonzero;stroke:none;stroke-width:1.1316"
         d="M 118.31058,59.682752 V 506.10473 H 585.4461 V 194.84239 c -0.0502,0.0679 -0.0974,0.13787 -0.14808,0.20554 -2.08247,2.76031 -4.3676,5.36244 -6.8802,7.74216 -2.03093,1.90943 -4.12772,3.74717 -6.40945,5.3552 -1.55006,1.15288 -3.07278,2.34422 -4.49545,3.65338 -1.72227,1.65871 -3.4742,3.29079 -5.06566,5.07893 l 0.002,0.005 c -9.87712,11.09799 -20.7573,4.49711 -17.14635,-5.72651 -2.66196,2.57717 -5.33405,5.14308 -8.0538,7.6604 -5.3021,4.86024 -11.08212,9.15306 -16.92534,13.33162 -3.56835,2.57027 -7.15205,5.10007 -10.65073,7.76427 -2.07738,1.71343 -4.15858,3.42194 -6.23041,5.14302 0.002,0.008 0.007,0.0159 0.009,0.0243 0.0154,-0.0148 0.031,-0.0284 0.0464,-0.0443 1.87119,-1.65047 3.79023,-3.17209 6.25915,-3.82798 0.65971,-0.17535 1.34182,-0.31982 2.0245,-0.31827 0.95542,0.002 1.89755,0.21977 2.84668,0.32932 0.86154,0.44178 1.80163,0.75302 2.58367,1.32387 0.6761,0.49352 1.22836,1.15195 1.72833,1.82338 1.46707,1.97034 1.71497,4.47462 1.59573,6.836 -0.25737,1.61668 -0.2435,2.07235 -0.86417,3.64896 -0.77161,1.96023 -2.07893,3.61808 -3.19145,5.38394 -1.89754,2.76418 -3.83339,5.50746 -5.99836,8.07147 -1.71338,2.06779 -3.43852,4.12536 -5.24248,6.11549 -2.16454,2.3481 -4.4344,4.59337 -6.80064,6.73875 -2.65101,2.47816 -5.36296,4.88719 -8.04937,7.32666 -3.06468,2.75936 -6.12859,5.51881 -9.17434,8.29912 -3.6245,3.34859 -7.2075,6.74412 -10.72808,10.20205 -2.03465,2.05668 -4.04764,4.1407 -5.90773,6.35862 -2.29027,2.71236 -4.67169,5.34696 -7.17637,7.86371 -2.89048,2.80107 -5.82718,5.55693 -8.91797,8.13779 -2.93666,2.46455 -5.84318,4.96699 -8.77871,7.43274 -3.31273,2.75972 -6.68222,5.45243 -10.23744,7.89687 -3.74786,2.69937 -7.44385,5.4687 -11.18336,8.17977 -2.38357,1.76834 -4.76832,3.53918 -7.16531,5.2889 v -0.009 c -0.57091,0.41673 -1.09558,0.59174 -1.64878,0.90173 5.11479,2.91726 4.62481,3.09671 1.87864,6.80065 -2.56991,2.33136 -5.42635,4.31332 -8.39195,6.10886 -2.23221,1.39818 -4.44697,2.82545 -6.53542,4.42913 -1.75242,2.05452 -3.91795,3.72829 -5.7464,5.70882 -0.59466,0.61216 -1.18889,1.22449 -1.78359,1.83664 -0.20682,0.23531 -0.40816,0.47596 -0.61221,0.71388 -0.015,0.092 -0.0277,0.1841 -0.042,0.27628 0.002,0.0435 -0.001,0.088 0.007,0.13039 0.0128,0.14248 -0.10637,0.55943 -0.0884,0.41772 0.0233,-0.18335 0.0535,-0.36543 0.0818,-0.54811 -0.003,-0.0733 -0.005,-0.14775 -0.005,-0.22323 -0.1865,0.21652 -0.37568,0.43153 -0.57465,0.63652 -0.11591,0.11936 -0.36611,0.44857 -0.40888,0.28733 -0.10467,-0.40474 -0.0643,-0.84887 -0.0309,-1.28853 -0.23156,0.2096 -0.46184,0.42096 -0.69399,0.62989 -0.12319,0.11534 -0.19905,0.18738 -0.31384,0.29616 1.68668,2.81915 2.47908,4.62187 -0.28511,5.74198 -0.44873,0.1818 -0.8876,0.41537 -1.36367,0.50391 -0.96829,0.17963 -1.95967,0.19559 -2.9395,0.29396 -0.15854,-0.11673 -0.32168,-0.22791 -0.48403,-0.34037 -1.70285,-0.15041 -2.9276,-0.29012 -4.02026,-1.29736 -0.15191,0.11516 -0.30597,0.22747 -0.47076,0.32268 -0.69333,0.40095 -1.36149,1.22383 -2.14827,1.07414 -2.77131,-0.52734 -5.28716,-1.9718 -7.9256,-2.97266 -5.18862,3.81819 -11.08514,6.05571 -17.57292,7.58304 -4.04231,1.05422 -8.1594,1.69054 -12.30171,2.13501 -0.90995,0.95593 -1.81903,1.91206 -2.7428,2.85552 -6.76622,6.82514 -13.77957,13.66536 -21.83851,18.82385 -1.49099,1.8489 -2.99548,3.68398 -4.49324,5.51434 -2.6132,2.96421 -5.30256,5.86223 -8.04053,8.71242 0.005,0.003 0.0113,0.002 0.0155,0.007 0.84759,0.66627 1.86594,1.31399 2.25215,2.32066 1.65207,4.30625 1.19887,4.4803 -0.0487,7.34433 -0.9969,1.54429 -2.15962,2.96889 -3.37711,4.34515 -1.51703,1.71333 -3.09676,3.36691 -4.63469,5.06125 -1.19661,1.32781 -2.40149,2.65085 -3.50309,4.06005 -1.19551,1.56984 -2.31772,3.19326 -3.45889,4.80266 -1.07325,1.53716 -2.07214,3.12418 -3.13621,4.66784 -1.04056,1.46608 -2.11844,2.90708 -3.22903,4.32085 -1.34817,1.66055 -2.70981,3.31073 -4.1816,4.86455 -2.15635,2.22791 -4.40671,4.38609 -7.00176,6.10442 -3.33775,2.29715 -6.77035,4.42817 -10.29268,6.43382 -3.37052,1.94487 -6.78157,3.81801 -10.1446,5.7751 -1.07822,0.62748 -2.11363,1.08215 -3.09642,1.39459 1.28394,5.48847 -3.88478,9.34575 -11.26073,4.11754 -2.40358,-1.70373 -4.6168,-3.65517 -6.86694,-5.55196 -1.9176,-1.59566 -3.8591,-3.15953 -5.83259,-4.68549 -1.53207,-1.20198 -3.07326,-2.39344 -4.65017,-3.53624 -1.59914,-1.14982 -3.18194,-2.31831 -4.73856,-3.52527 -1.04799,-0.86567 -2.09181,-1.73508 -3.14947,-2.58808 -2.15739,-1.34128 -4.12925,-2.93797 -6.01383,-4.63685 -1.76311,-1.5861 -3.39607,-3.29843 -4.94852,-5.08776 -1.17622,-1.15783 -2.39787,-2.27012 -3.57602,-3.42574 -1.38022,-1.26601 -2.58568,-2.69687 -3.76831,-4.14404 -1.08337,-1.28319 -2.15796,-2.5685 -3.17821,-3.90312 -1.17192,-1.46537 -2.34089,-2.9314 -3.46551,-4.43356 -0.99157,-1.33544 -2.0303,-2.67469 -2.71407,-4.20372 -0.20005,-0.44746 -0.36145,-0.91222 -0.54148,-1.36808 -0.89724,-2.8335 -0.66147,-5.421 0.89732,-7.99412 0.74908,-1.2365 1.51525,-1.77599 2.55936,-2.68313 0.21954,-0.15873 0.48262,-0.2292 0.70945,-0.3735 -1.51878,-3.74006 -2.57717,-7.64169 -2.87982,-11.78454 -0.12201,-3.37029 -0.0308,-6.71954 0.28953,-10.04735 -2.90085,-1.32713 -5.64659,-2.94209 -7.96318,-5.12977 -1.93168,-1.82413 -3.57965,-3.9278 -5.36846,-5.89226 -1.3101,-2.682 -3.17034,-5.16049 -3.92965,-8.04715 -3.43128,-13.04465 0.59795,-22.05153 7.97644,-32.20856 5.81976,-7.14626 12.69124,-13.31827 19.5731,-19.40955 6.60286,-5.97454 13.57472,-11.51463 20.57873,-17.00712 -0.0857,-0.0455 -0.22088,-0.0455 -0.29174,-0.10388 -1.8075,-1.48906 -3.72371,-3.22012 -4.43136,-5.45246 -0.33592,-1.05977 -0.26069,-1.96172 0.0398,-2.76048 -0.14529,-0.14785 -0.29099,-0.29719 -0.44202,-0.46634 -3.3827,1.74861 -6.77589,3.47971 -10.2286,5.08556 v -0.002 c -11.37965,5.29258 -17.04848,-6.04534 -5.66904,-11.33807 4.10813,-1.91075 8.13182,-3.99796 12.15363,-6.08234 3.02721,-1.54983 6.08915,-3.03241 9.20529,-4.39378 0.1921,-0.4591 0.38532,-0.90134 0.57021,-1.31063 0.52297,-1.15769 1.04028,-2.20315 1.58468,-3.31523 -0.56014,0.25781 -1.16019,0.44085 -1.81453,0.50835 -1.19284,0.12305 -2.38053,-0.27873 -3.5716,-0.41773 -0.91662,-0.67106 -1.98047,-1.17927 -2.75164,-2.01344 -1.68236,-1.8197 -1.90155,-4.69526 -2.09081,-7.03492 -0.10603,-1.43747 -0.14902,-2.8779 -0.17903,-4.31864 -0.0695,-1.33067 0.002,-2.64976 0.20555,-3.96501 0.34756,-1.74861 1.25819,-3.20476 2.32066,-4.5927 0.4485,-0.57922 0.89273,-1.01854 1.32167,-1.62004 0.72476,-0.84319 0.20247,-0.2542 0.96364,-1.22663 0.55178,-0.71557 1.16791,-1.35899 1.80569,-1.99576 -0.5973,-0.77741 -1.23051,-1.54269 -1.42114,-2.4798 -0.72403,-3.56065 0.88646,-6.08796 3.33733,-8.1643 1.44564,-1.11067 2.97555,-2.10757 4.51755,-3.07873 0.35686,-0.19328 0.70094,-0.41484 1.07193,-0.57907 1.59749,-0.70765 3.05559,-1.00049 4.55954,-0.86196 0.68559,-0.80881 1.3787,-1.61019 2.10628,-2.38254 1.88568,-1.99546 3.91367,-3.84364 6.52215,-4.84465 0.43396,-0.1368 0.86324,-0.1437 1.29074,-0.25639 0.4335,-0.44335 0.86481,-0.8879 1.30178,-1.32829 1.30053,-1.26969 2.60771,-2.53357 3.91639,-3.79484 1.59887,-1.54289 3.18291,-3.10242 4.80044,-4.62585 1.7327,-1.62556 3.47419,-3.24118 5.23143,-4.84023 1.8065,-1.68506 3.57987,-3.40308 5.35299,-5.12312 1.64005,-1.5858 3.26506,-3.18821 4.92644,-4.75183 1.35946,-1.28034 2.7073,-2.5726 4.07772,-3.84126 1.17011,-1.10056 2.3498,-2.19061 3.50973,-3.30195 1.2631,-1.18967 2.5015,-2.45728 4.07552,-3.23567 0.5108,-0.13216 1.01833,-0.52015 1.53163,-0.39783 0.37149,0.0886 0.74632,0.20031 1.1117,0.33815 0.12072,-0.0583 0.24369,-0.11461 0.37131,-0.16576 0.12713,-0.051 0.256,-0.10094 0.38456,-0.15029 0.48075,-0.58824 0.96046,-1.17754 1.44103,-1.76591 1.42559,-1.75148 2.80926,-3.53447 4.16835,-5.33752 -0.002,-1.48548 0.37708,-2.94554 1.20231,-4.34295 0.64697,-0.95002 1.33144,-1.87297 2.07092,-2.75384 0.91856,-1.18903 1.87227,-2.34952 2.84005,-3.49868 1.50062,-1.7898 3.05886,-3.53543 4.68551,-5.21154 1.35439,-1.30695 2.74524,-2.57743 4.11751,-3.86555 1.27493,-1.15552 2.49161,-2.36874 3.70865,-3.58487 0.68958,-0.67365 1.23337,-1.49506 1.96703,-2.12836 0.79127,-0.73199 1.51367,-1.53989 2.34498,-2.23005 0.71578,-0.69021 1.45668,-1.35198 2.12395,-2.09081 0.71277,-0.7765 1.43962,-1.54149 2.1328,-2.33613 0.35229,-0.32478 -0.04,0.0465 0.66082,-0.73155 0.64208,-0.71283 1.34036,-1.37469 2.05102,-2.01788 1.12662,-1.00229 2.30794,-1.93036 3.5031,-2.84889 1.59382,-1.30497 3.22566,-2.56433 4.90875,-3.75284 2.61753,-2.82889 5.25061,-5.64316 7.92781,-8.41625 4.76902,-4.83185 9.58341,-9.62205 14.23339,-14.56933 0.85003,-1.06937 1.73286,-2.11235 2.56818,-3.19366 1.66741,-2.03665 3.25185,-4.13968 4.92643,-6.17074 1.10157,-1.29232 2.24514,-2.543 3.46774,-3.72191 0.93788,-0.9728 1.85805,-1.96591 2.87319,-2.85993 1.29805,-1.16755 2.60466,-2.33934 4.07774,-3.2865 0.0341,-0.0218 0.0635,-0.0272 0.0972,-0.0487 4.07565,-4.26224 8.17191,-8.50486 12.33264,-12.68407 0.52634,-0.85242 0.99942,-1.73624 1.54489,-2.57703 0.47027,-0.67419 0.95249,-1.3448 1.53386,-1.92946 0.56573,-0.58513 1.15054,-1.1537 1.77033,-1.68193 0.72637,-0.62058 1.46988,-1.21989 2.26098,-1.75707 0.84359,-0.60364 1.70635,-1.1793 2.56157,-1.76591 1.95799,-1.967059 3.91876,-3.931366 5.89668,-5.879004 3.84141,-3.796816 7.74338,-7.535208 11.51048,-11.406596 4.07813,-4.253292 8.09595,-8.563005 12.22434,-12.768056 2.27175,-2.327425 4.5585,-4.66929 7.11228,-6.690131 1.88081,-1.388041 3.84433,-2.653789 5.83259,-3.881018 z m 397.9224,0 c 3.02613,1.362613 6.03533,2.761268 9.00194,4.247916 h 0.002 c 13.97339,7.003776 9.54928,20.335979 -2.53948,17.981791 0.42468,2.170529 0.73186,4.358734 0.87523,6.568575 1.72548,-0.598808 3.49223,-1.122093 5.31984,-1.536054 6.92399,-1.242189 8.82764,-1.9406 16.18715,-1.653196 10.04973,0.392359 19.37724,4.227762 27.57385,9.846225 2.25136,2.128954 4.79826,3.984152 6.75423,6.387341 2.69268,3.3084 4.70198,6.92131 6.03814,10.74354 V 59.682752 Z M 270.17013,216.42673 c -0.0135,0.0205 -0.044,0.10648 -0.0376,0.14145 0.003,0.0188 0.006,0.0384 0.009,0.0575 0.0168,-0.075 0.0306,-0.14349 0.0354,-0.19229 10e-4,-0.0119 -0.002,-0.0135 -0.007,-0.007 z m 2.65661,8.28586 c -0.012,-0.005 -0.0342,0.018 -0.0243,0.0265 0.0851,0.0626 0.21381,0.092 0.34699,0.10829 -0.0327,-0.024 -0.0603,-0.0419 -0.0951,-0.0685 -0.0756,-0.0218 -0.14984,-0.0535 -0.22764,-0.0663 z m -4.81151,0.38899 c -1.33265,1.23577 -2.64456,2.49316 -3.96722,3.73958 -1.64101,1.54504 -3.24663,3.1276 -4.86676,4.69436 -1.79998,1.74669 -3.60309,3.48938 -5.43697,5.20049 -1.75261,1.59532 -3.48983,3.20759 -5.21817,4.82918 -1.59547,1.5035 -3.15887,3.04169 -4.73636,4.56396 -0.6244,0.60178 -1.24497,1.20699 -1.86759,1.81012 0.0961,0.0803 0.21465,0.12863 0.30723,0.21438 1.42484,0.41165 2.65345,1.23539 3.80367,2.59472 1.7631,2.08357 1.60266,3.7066 1.84547,6.13759 -0.0333,0.8153 -0.12333,1.61851 -0.25416,2.41348 2.03436,0.49366 2.28318,1.38857 3.68432,3.74622 0.19324,0.83512 0.46197,1.65709 0.57906,2.50632 0.0565,0.40886 0.0192,0.82399 -0.002,1.23767 8.50014,-7.50393 17.49938,-14.40286 26.51297,-21.2705 5.0363,-3.8421 10.14505,-7.58568 15.281,-11.29167 -0.70435,-0.37174 -1.43347,-0.69575 -2.12838,-1.08518 -1.63243,-0.91487 -4.89577,-2.81821 -6.29894,-3.99817 -0.71925,-0.60484 -1.35656,-1.30005 -2.01344,-1.97366 -1.186,-0.35849 -2.37316,-0.71728 -3.5473,-1.11392 -0.54611,0.64149 -0.96215,1.10288 -1.8499,1.70845 -0.48791,0.33283 -1.04161,0.55701 -1.56257,0.83544 -0.48139,0.14071 -0.95193,0.3212 -1.44322,0.42214 -1.30614,0.26854 -2.90695,0.1804 -4.14846,-0.34258 -0.31151,-0.13121 -0.59985,-0.31201 -0.89953,-0.46855 -0.78455,-0.78323 -1.36837,-1.12841 -1.67308,-2.2013 -0.28424,-1.00076 -0.25302,-1.95598 -0.0995,-2.90857 z m 239.94295,24.50616 c -0.006,0.42598 -0.11401,-0.0164 -0.11056,0.0221 0.0208,0.19947 0.058,0.3886 0.0972,0.57684 0.10705,-0.16245 0.18031,-0.32887 0.13703,-0.50833 -0.012,-0.0508 -0.0938,-0.0523 -0.12376,-0.0906 z m -263.32636,21.3987 c -0.10207,0.26311 -0.16049,0.45934 -0.0751,0.4155 0.0805,-0.0415 0.10094,-0.16656 0.0906,-0.25637 -0.006,-0.0527 -0.0102,-0.10625 -0.0155,-0.15913 z m -34.67508,15.91309 c -0.0533,0.0267 -0.10546,0.0568 -0.15913,0.0818 -0.0517,0.0243 -0.18021,0.12788 -0.12377,0.11934 0.0755,-0.009 0.17447,-0.0908 0.2829,-0.20112 z m 6.41166,4.24128 c -0.1489,-0.0172 0.0277,0.13664 0.33152,0.33595 0.0276,-0.0668 0.0531,-0.13479 0.0818,-0.20114 -0.10071,-0.0387 -0.20156,-0.0792 -0.30501,-0.11055 -0.0469,-0.014 -0.082,-0.0213 -0.1083,-0.0243 z m 212.86195,24.56364 c -0.70185,0.65736 -1.39673,1.32177 -2.09965,1.97808 -1.1448,1.07756 -2.29282,2.15229 -3.44342,3.22461 2.21136,-0.68693 4.44191,-1.36195 6.52437,-2.38033 0.47615,-0.2653 0.8987,-0.61095 1.3062,-0.97247 -0.68809,-0.66412 -1.50045,-1.24864 -2.2875,-1.84989 z m -154.84987,11.80883 c -1.32085,0.75646 -2.64981,1.50095 -3.98491,2.23226 0.75877,1.22593 1.51287,2.45386 2.25213,3.69095 1.24973,0.29062 2.41632,0.54556 3.34397,0.66968 0.68333,-0.69568 1.36822,-1.39009 2.05322,-2.08417 -0.58717,-1.02549 -1.76777,-2.49143 -3.66441,-4.50872 z m 147.04803,7.30457 c -1.06341,0.30758 -2.12795,0.61548 -3.19588,0.90836 -0.2827,0.0626 -0.53757,0.19761 -0.81334,0.27627 0.29698,0.36586 0.58937,0.73445 0.87964,1.10507 1.04254,-0.7641 2.08227,-1.53228 3.12958,-2.2897 z m -268.6064,19.11559 c 0.35486,0.005 0.71065,0.0608 1.06087,0.18344 5.77947,2.02482 5.43283,3.24007 6.09781,7.04155 -0.0212,0.92056 -0.10286,1.8322 -0.22986,2.73838 1.38211,0.929 2.38836,2.45491 3.23125,3.8987 0.55003,0.94233 0.38723,2.15166 0.46413,3.24009 0.051,0.72241 -0.03,1.44804 -0.0818,2.17037 -0.12101,1.68972 -0.36368,3.27592 -0.5901,4.95516 -0.83377,5.48607 -1.60501,10.98107 -2.21678,16.49657 -0.44177,4.28233 -0.71354,8.5793 -0.80229,12.88298 0.007,0.25541 0.007,0.51095 0.005,0.76692 0.008,0.0834 0.018,0.16639 0.0266,0.24975 0.0526,0.0415 0.10399,0.0848 0.15692,0.12598 l 0.002,0.002 c 5.70398,4.43591 6.03282,9.63287 3.29975,11.90608 2.63012,8.50406 -6.83238,12.71211 -12.48293,3.10526 -0.19959,-0.33933 -0.39394,-0.68148 -0.5857,-1.02551 -0.12311,0.0152 -0.23038,0.0261 -0.35583,0.042 -0.54335,0.0688 -0.4475,-1.00112 -0.67189,-1.5007 -0.84236,-2.1444 -1.55593,-4.33397 -2.18804,-6.54868 -3.3794,0.28005 -4.72234,-0.21474 -5.39719,-1.81896 -0.6285,0.11532 -1.31738,0.22885 -2.13059,0.34921 -0.99629,0.14747 -2.5767,-1.03978 -3.68654,-2.0245 -0.73214,-0.35241 -1.46924,-0.69525 -2.14163,-1.14706 -2.21776,-1.33239 -4.375,-2.66495 -6.06687,-4.67227 -0.81161,-0.96292 -1.08665,-1.77319 -1.59794,-2.89972 -0.13383,-0.4678 -0.30803,-0.9261 -0.40225,-1.40345 -0.38017,-1.9252 -0.21064,-3.86796 -0.0353,-5.80385 0.27227,-2.71827 0.651,-5.43638 1.65098,-7.99854 0.9028,-2.3111 1.98202,-4.54441 3.12516,-6.74539 0.0404,-0.10807 0.0768,-0.21689 0.11934,-0.32489 0.54714,-1.30821 1.23266,-2.55136 1.89853,-3.80147 0.36081,-0.62891 0.75149,-1.23758 1.17138,-1.82557 0.59834,-1.06616 1.26605,-2.09399 1.97808,-3.092 1.0951,-1.50048 2.36454,-2.85928 3.51856,-4.31201 1.02055,-1.20202 1.9556,-2.4737 2.94614,-3.69981 1.3592,-1.59492 2.67726,-3.22435 4.01142,-4.84023 0.21255,-0.24707 1.51997,-1.78662 1.79685,-2.03555 1.26568,-1.13756 3.18699,-2.65823 5.10325,-2.63449 z m 7.35317,20.19858 c -0.0307,0.002 -0.29013,0.16584 -0.33815,0.22101 -0.0345,0.0397 -0.0664,0.0808 -0.0995,0.12156 0.12528,-0.0931 0.25287,-0.18441 0.37573,-0.28069 0.0569,-0.0446 0.0721,-0.0627 0.0619,-0.0619 z M 136.909,411.78207 c 0.0225,0.0216 0.0436,0.0449 0.0663,0.0663 0.10105,0.0949 0.4836,0.27149 0.36688,0.19671 -0.14191,-0.0912 -0.28638,-0.17961 -0.4332,-0.26301 z m 106.50945,69.12028 c -0.51674,0.54736 -1.00435,1.12119 -1.52943,1.65983 -0.53489,0.5452 -1.04721,1.10795 -1.56258,1.66866 0.53103,-0.21195 1.10816,-0.41802 1.71066,-0.62103 h 0.002 c 0.0292,-0.017 0.0567,-0.0351 0.0862,-0.0532 0.69541,-0.40964 1.39536,-0.81136 2.09522,-1.21341 -0.23966,-0.37784 -0.44679,-0.78409 -0.69399,-1.15582 -0.0342,-0.0951 -0.0723,-0.19022 -0.1083,-0.28516 z" /></clipPath></defs><g
     inkscape:label="Calque 1"
     inkscape:groupmode="layer"
     id="layer1"
     transform="translate(-49.558438,-138.75381)"><g
       id="g367"
       transform="matrix(0.23381393,0,0,0.23381393,21.963249,153.15142)"
       clip-path="url(#clipPath2896)"><path
         d="m 176.66,95.406 c 0,-10.863 -2.4883,-19.539 -7.4648,-26.02 -4.9766,-6.4844 -12.09,-9.7031 -21.336,-9.6523 -9.1836,0 -16.277,3.2344 -21.281,9.707 -5.004,6.4726 -7.4922,15.145 -7.4648,26.02 0,10.875 2.4883,19.551 7.4648,26.02 4.9766,6.4727 12.07,9.707 21.281,9.707 9.1602,0 16.254,-3.2344 21.281,-9.707 5.0273,-6.4688 7.5312,-15.16 7.5195,-26.074 z m -28.801,16.801 c -6.2227,0 -9.332,-5.6016 -9.332,-16.801 0,-11.1994 3.1094,-16.801 9.332,-16.801 6.2226,0 9.332,5.6016 9.332,16.801 0,11.1994 -3.1094,16.801 -9.332,16.801 z"
         id="path203" /><path
         d="m 230.64,121.43 c 4.9766,-6.4727 7.4648,-15.145 7.4648,-26.02 0,-10.875 -2.4883,-19.551 -7.4648,-26.02 -5.0508,-6.4375 -12.145,-9.6523 -21.277,-9.6523 -9.1328,0 -16.234,3.2344 -21.297,9.707 -4.9766,6.4727 -7.4648,15.145 -7.4648,26.02 0,10.875 2.4883,19.551 7.4648,26.02 4.9766,6.4727 12.078,9.707 21.297,9.707 9.219,0 16.312,-3.2539 21.277,-9.7617 z m -21.281,-9.2227 c -6.2227,0 -9.332,-5.6016 -9.332,-16.801 0,-11.199 3.1094,-16.801 9.332,-16.801 6.2227,0 9.332,5.6016 9.332,16.801 0.004,11.203 -3.1094,16.805 -9.3281,16.805 z"
         id="path205" /><path
         d="m 294.13,121.43 c 4.9766,-6.4727 7.4648,-15.145 7.4648,-26.02 0,-10.875 -2.4883,-19.551 -7.4648,-26.02 -4.9766,-6.457 -12.07,-9.6953 -21.281,-9.707 -9.207,-0.01172 -16.301,3.2227 -21.281,9.707 -4.9766,6.4727 -7.4648,15.145 -7.4648,26.02 0,10.875 2.4883,19.551 7.4648,26.02 4.9766,6.4727 12.07,9.707 21.281,9.707 9.2109,0 16.305,-3.2344 21.281,-9.707 z m -21.281,-9.2227 c -6.2227,0 -9.332,-5.6016 -9.332,-16.801 0,-11.199 3.1094,-16.801 9.332,-16.801 6.2226,0 9.332,5.6016 9.332,16.801 0.004,11.203 -3.1055,16.805 -9.3281,16.805 z"
         id="path207" /><path
         d="m 314.2,83.254 c 1.6094,-0.38281 3.3047,-0.0078 4.6055,1.0195 1.2969,1.0234 2.0547,2.5898 2.0586,4.2422 v 35.656 c 0,2.9883 2.4219,5.4141 5.4102,5.4141 h 8.793 c 1.4375,0 2.8125,-0.57422 3.8281,-1.5859 1.0156,-1.0156 1.5859,-2.3945 1.5859,-3.8281 v -57.531 c 0,-1.4336 -0.57031,-2.8086 -1.5859,-3.8203 -1.0156,-1.0156 -2.3945,-1.5781 -3.8281,-1.5742 h -10.266 c -0.63672,-0.01172 -1.2695,0.09766 -1.8672,0.31641 l -13.625,4.9102 c -2.6562,0.96875 -4.125,3.8086 -3.3789,6.5312 l 1.7734,6.4219 c 0.76562,2.8281 3.6484,4.5273 6.4961,3.8281 z"
         id="path209" /><path
         d="m 407.87,95.406 c 0,-10.863 -2.4883,-19.539 -7.4648,-26.02 -4.9805,-6.4844 -12.098,-9.7031 -21.355,-9.6523 -9.1836,0 -16.277,3.2344 -21.281,9.707 -5.004,6.4726 -7.4922,15.145 -7.4648,26.02 0,10.875 2.4883,19.551 7.4648,26.02 4.9766,6.4727 12.07,9.707 21.281,9.707 9.1836,0 16.277,-3.2344 21.281,-9.707 5,-6.4688 7.5117,-15.16 7.5391,-26.074 z m -28.801,16.801 c -6.2227,0 -9.332,-5.6016 -9.332,-16.801 0,-11.1994 3.1094,-16.801 9.332,-16.801 6.2226,0 9.332,5.6016 9.332,16.801 0,11.1994 -3.1172,16.801 -9.3516,16.801 z"
         id="path211" /><path
         d="m 442.53,131.13 c 9.1836,0 16.285,-3.2344 21.297,-9.707 5.0156,-6.4727 7.5039,-15.145 7.4648,-26.02 0,-10.863 -2.4883,-19.539 -7.4648,-26.02 -4.9766,-6.4844 -12.074,-9.7031 -21.297,-9.6523 -9.1719,0 -16.266,3.2344 -21.281,9.707 -5.015,6.4726 -7.5039,15.145 -7.4648,26.02 0,10.875 2.4883,19.551 7.4648,26.02 4.9766,6.4727 12.07,9.6914 21.281,9.6523 z m 0,-52.508 c 6.2227,0 9.332,5.6016 9.332,16.801 0,11.1994 -3.1094,16.801 -9.332,16.801 -6.2226,0 -9.332,-5.6016 -9.332,-16.801 0,-11.203 3.1094,-16.801 9.332,-16.801 z"
         id="path213" /><path
         d="m 133.46,181.31 v 35.617 c 0,3 2.4336,5.4297 5.4336,5.4297 h 8.6602 c 1.4414,0 2.8242,-0.57031 3.8438,-1.5898 1.0156,-1.0195 1.5898,-2.3984 1.5898,-3.8398 v -57.477 c 0,-3 -2.4336,-5.4297 -5.4336,-5.4297 h -10.359 c -0.63672,0 -1.2656,0.10547 -1.8672,0.31641 l -13.609,4.9102 h 0.004 c -2.5977,1.0312 -3.9805,3.8711 -3.1914,6.5508 l 1.7539,6.3828 c 0.77344,2.832 3.6602,4.5352 6.5117,3.8477 1.6133,-0.375 3.3125,0.004 4.6094,1.0312 1.2969,1.0312 2.0547,2.5938 2.0547,4.25 z"
         id="path219" /><path
         d="m 211.66,214.2 c 4.9766,-6.4727 7.4648,-15.145 7.4648,-26.02 0,-10.875 -2.4883,-19.543 -7.4648,-26.004 -4.9766,-6.4727 -12.07,-9.7109 -21.281,-9.7266 -9.207,-0.0117 -16.301,3.2305 -21.281,9.7266 -4.9766,6.4727 -7.4648,15.137 -7.4648,26.004 0,10.863 2.4883,19.539 7.4648,26.02 4.9766,6.4727 12.07,9.7109 21.281,9.7266 9.2109,0.0117 16.305,-3.2305 21.281,-9.7266 z m -30.555,-26.02 c 0,-11.199 3.1094,-16.801 9.332,-16.801 6.2226,0 9.332,5.6016 9.332,16.801 0,11.199 -3.1094,16.801 -9.332,16.801 -6.2226,0 -9.332,-5.6016 -9.332,-16.801 z"
         id="path221" /><path
         d="m 254.8,216.93 v -57.477 c 0,-3 -2.4336,-5.4297 -5.4336,-5.4297 h -10.172 c -0.63672,0 -1.2695,0.10547 -1.8672,0.31641 l -13.609,4.9102 c -2.668,0.96094 -4.1484,3.8164 -3.3945,6.5508 l 1.7539,6.3828 c 0.77344,2.8711 3.7109,4.582 6.5898,3.8477 1.6172,-0.39062 3.3242,-0.0156 4.6289,1.0156 1.3086,1.0312 2.0703,2.6016 2.0703,4.2656 v 35.617 c 0,3 2.4336,5.4297 5.4336,5.4297 h 8.6602 c 2.9648,-0.0508 5.3398,-2.4648 5.3398,-5.4297 z"
         id="path223" /><path
         d="m 313.58,214.2 c 4.9766,-6.4727 7.4648,-15.145 7.4648,-26.02 0,-10.875 -2.4883,-19.543 -7.4648,-26.004 -4.9766,-6.4727 -12.078,-9.7109 -21.297,-9.7266 -9.2227,-0.0117 -16.316,3.2305 -21.281,9.7266 -4.9766,6.4727 -7.4648,15.137 -7.4648,26.004 0,10.863 2.4883,19.539 7.4648,26.02 4.9766,6.4727 12.07,9.7109 21.281,9.7266 9.207,0.0117 16.305,-3.2305 21.297,-9.7266 z m -21.297,-9.2227 c -6.2227,0 -9.332,-5.6016 -9.332,-16.801 0,-11.1994 3.1094,-16.801 9.332,-16.801 6.2226,0 9.332,5.6016 9.332,16.801 0,11.203 -3.1133,16.805 -9.3359,16.805 z"
         id="path225" /><path
         d="m 356.62,224 c 9.1836,0 16.277,-3.2422 21.281,-9.7266 5.0039,-6.4844 7.4922,-15.156 7.4648,-26.02 0,-10.863 -2.4883,-19.531 -7.4648,-26.004 -4.9765,-6.473 -12.07,-9.7109 -21.281,-9.7266 -9.1836,0 -16.277,3.2422 -21.281,9.7266 -5.004,6.4844 -7.4922,15.152 -7.4648,26.004 0,10.891 2.4883,19.562 7.4648,26.02 4.9805,6.4609 12.074,9.7031 21.281,9.7266 z m 0,-52.527 c 6.2227,0 9.332,5.6016 9.332,16.801 0,11.199 -3.1094,16.801 -9.332,16.801 -6.2226,0 -9.332,-5.6016 -9.332,-16.801 0,-11.203 3.1133,-16.828 9.332,-16.875 z"
         id="path227" /><path
         d="m 407.53,181.31 v 35.617 c 0,3 2.4297,5.4297 5.4297,5.4297 h 8.6641 c 1.4414,0 2.8203,-0.57031 3.8398,-1.5898 1.0195,-1.0195 1.5898,-2.3984 1.5898,-3.8398 v -57.477 c 0,-3 -2.4297,-5.4297 -5.4297,-5.4297 h -10.211 c -0.63672,0 -1.2695,0.10547 -1.8672,0.31641 l -13.609,4.9102 c -2.668,0.96094 -4.1484,3.8164 -3.3945,6.5508 l 1.7539,6.3828 c 0.77344,2.832 3.6602,4.5352 6.5156,3.8477 1.6172,-0.39453 3.332,-0.0234 4.6445,1.0078 1.3086,1.0273 2.0742,2.6055 2.0742,4.2734 z"
         id="path229" /><path
         d="m 467.15,154.02 h -10.211 c -0.63672,0 -1.2656,0.10547 -1.8672,0.31641 l -13.609,4.9102 c -2.668,0.96094 -4.1484,3.8164 -3.3945,6.5508 l 1.7539,6.3828 c 0.77344,2.832 3.6602,4.5352 6.5156,3.8477 1.6172,-0.39062 3.3242,-0.0156 4.6328,1.0156 1.3047,1.0312 2.0664,2.6016 2.0664,4.2656 v 35.617 c 0,3 2.4336,5.4297 5.4336,5.4297 h 8.6602 c 1.4414,0 2.8242,-0.57031 3.8398,-1.5898 1.0195,-1.0195 1.5938,-2.3984 1.5938,-3.8398 v -57.477 c 0,-2.9922 -2.4219,-5.4219 -5.4141,-5.4297 z"
         id="path231" /><path
         d="m 574.22,154.02 h -10.211 c -0.63281,0 -1.2656,0.10547 -1.8633,0.31641 l -13.609,4.9102 c -2.6719,0.96094 -4.1523,3.8164 -3.3984,6.5508 l 1.7734,6.3828 c 0.75781,2.8633 3.6836,4.582 6.5508,3.8477 1.6211,-0.39062 3.3281,-0.0156 4.6328,1.0156 1.3086,1.0312 2.0703,2.6016 2.0703,4.2656 v 35.617 c 0,3 2.4336,5.4297 5.4336,5.4297 h 8.6602 c 1.4414,0 2.8203,-0.57031 3.8398,-1.5898 1.0195,-1.0195 1.5898,-2.3984 1.5898,-3.8398 v -57.477 c 0.004,-1.4453 -0.57422,-2.832 -1.6016,-3.8516 -1.0273,-1.0195 -2.418,-1.5898 -3.8672,-1.5781 z"
         id="path233" /><path
         d="m 491.64,162.18 c -4.9766,6.4727 -7.4648,15.137 -7.4648,26.004 0,10.863 2.4883,19.539 7.4648,26.02 4.9766,6.4727 12.07,9.7109 21.281,9.7266 9.207,0.0117 16.301,-3.2305 21.281,-9.7266 4.9766,-6.4727 7.4648,-15.145 7.4648,-26.02 0,-10.875 -2.4883,-19.543 -7.4648,-26.004 -4.9766,-6.4727 -12.07,-9.7109 -21.281,-9.7266 -9.2109,-0.0117 -16.305,3.2305 -21.281,9.7266 z m 21.281,9.2227 c 6.2227,0 9.332,5.6016 9.332,16.801 0,11.1994 -3.1094,16.801 -9.332,16.801 -6.2227,0 -9.332,-5.6016 -9.332,-16.801 -0.004,-11.203 3.1055,-16.801 9.3281,-16.801 z"
         id="path235" /><path
         d="m 176.66,282.89 c 0,-10.863 -2.4883,-19.539 -7.4648,-26.02 -4.9766,-6.4844 -12.07,-9.7188 -21.281,-9.707 -9.1836,0 -16.277,3.2344 -21.281,9.707 -5.0039,6.4727 -7.4922,15.145 -7.4648,26.02 0,10.863 2.4883,19.539 7.4648,26.02 4.9766,6.4844 12.07,9.7188 21.281,9.707 9.1602,0 16.254,-3.2344 21.281,-9.707 5.0273,-6.4688 7.5156,-15.145 7.4648,-26.02 z m -28.801,16.801 c -6.2227,0 -9.332,-5.6016 -9.332,-16.801 0,-11.1994 3.1094,-16.801 9.332,-16.801 6.2226,0 9.332,5.6016 9.332,16.801 0,11.1994 -3.1094,16.797 -9.332,16.797 z"
         id="path237" /><path
         d="m 213.34,247.16 c -9.1836,0 -16.277,3.2344 -21.281,9.707 -5.004,6.4726 -7.4922,15.145 -7.4648,26.02 0,10.863 2.4883,19.539 7.4648,26.02 4.9766,6.4844 12.07,9.7188 21.281,9.707 9.1602,0 16.254,-3.2344 21.281,-9.707 5.027,-6.4726 7.5156,-15.145 7.4648,-26.02 0,-10.863 -2.4883,-19.539 -7.4648,-26.02 -4.9766,-6.4844 -12.07,-9.7188 -21.281,-9.707 z m 0,52.527 c -6.2227,0 -9.332,-5.6016 -9.332,-16.801 0,-11.1994 3.1094,-16.801 9.332,-16.801 6.2226,0 9.332,5.6016 9.332,16.801 0.004,11.203 -3.1094,16.801 -9.332,16.801 z"
         id="path239" /><path
         d="m 385.02,247.16 c -9.1836,0 -16.277,3.2344 -21.281,9.707 -5.0039,6.4727 -7.4922,15.145 -7.4648,26.02 0,10.863 2.4883,19.539 7.4648,26.02 4.9766,6.4844 12.07,9.7188 21.281,9.707 9.1719,0 16.266,-3.2344 21.281,-9.707 5.015,-6.4726 7.5039,-15.145 7.4648,-26.02 0,-10.863 -2.4883,-19.539 -7.4648,-26.02 -4.9805,-6.4844 -12.074,-9.7188 -21.281,-9.707 z m 0,52.527 c -6.2227,0 -9.332,-5.6016 -9.332,-16.801 0,-11.1994 3.1094,-16.801 9.332,-16.801 6.2227,0 9.332,5.6016 9.332,16.801 0,11.203 -3.1094,16.801 -9.332,16.801 z"
         id="path245" /><path
         d="m 448.5,318.62 c 9.1836,0 16.277,-3.2344 21.281,-9.707 5.0039,-6.4727 7.4922,-15.145 7.4648,-26.02 0,-10.863 -2.4883,-19.539 -7.4648,-26.02 -4.9766,-6.4844 -12.07,-9.7188 -21.281,-9.707 -9.1836,0 -16.277,3.2344 -21.281,9.707 -5.004,6.4726 -7.4922,15.145 -7.4648,26.02 0,10.863 2.4883,19.539 7.4648,26.02 4.9805,6.4844 12.074,9.7188 21.281,9.707 z m 0,-52.508 c 6.2227,0 9.332,5.6016 9.332,16.801 0,11.199 -3.1094,16.801 -9.332,16.801 -6.2226,0 -9.332,-5.6016 -9.332,-16.801 0,-11.203 3.1094,-16.801 9.332,-16.801 z"
         id="path247" /><path
         d="m 496.57,276.02 v 35.598 c 0,3.0039 2.4297,5.4414 5.4336,5.4492 h 8.6602 c 1.4453,0 2.8281,-0.57422 3.8477,-1.5977 1.0195,-1.0195 1.5898,-2.4062 1.5859,-3.8516 v -57.457 c 0,-3 -2.4336,-5.4297 -5.4336,-5.4297 h -10.211 c -0.63672,-0.0117 -1.2695,0.0977 -1.8672,0.31641 l -13.609,4.9102 h 0.004 c -2.6719,0.96094 -4.1523,3.8164 -3.3984,6.5508 l 1.7734,6.3828 c 0.77344,2.8242 3.6484,4.5234 6.4961,3.8477 1.6211,-0.39453 3.332,-0.0234 4.6445,1.0039 1.3125,1.0312 2.0781,2.6094 2.0742,4.2773 z"
         id="path249" /><path
         d="m 577.98,308.91 c 4.9766,-6.4727 7.4648,-15.145 7.4648,-26.02 0,-10.875 -2.4883,-19.551 -7.4648,-26.02 -4.9766,-6.4844 -12.07,-9.7188 -21.281,-9.707 -9.207,0.0117 -16.309,3.2461 -21.297,9.707 -4.9766,6.4727 -7.4648,15.145 -7.4648,26.02 0,10.875 2.4883,19.551 7.4648,26.02 4.9766,6.4727 12.078,9.707 21.297,9.707 9.2227,0 16.316,-3.2344 21.281,-9.707 z m -30.559,-26.02 c 0,-11.199 3.1094,-16.801 9.332,-16.801 6.2226,0 9.332,5.6016 9.332,16.801 0,11.1994 -3.1094,16.801 -9.332,16.801 -6.2188,-0.004 -9.332,-5.6016 -9.332,-16.801 z"
         id="path251" /><path
         d="m 133.46,368.8 v 35.617 c 0,3 2.4336,5.4297 5.4336,5.4297 h 8.6602 c 2.9961,-0.008 5.4219,-2.4336 5.4336,-5.4297 V 346.94 c -0.0508,-2.9844 -2.5039,-5.3672 -5.4883,-5.3359 h -10.305 c -0.63672,-0.004 -1.2656,0.10547 -1.8672,0.31641 l -13.609,4.9102 h 0.004 c -2.5508,1.0273 -3.9258,3.8047 -3.1914,6.457 l 1.7539,6.3828 c 0.78125,2.8281 3.6602,4.5273 6.5117,3.8477 1.6133,-0.375 3.3125,0.004 4.6094,1.0312 1.2969,1.0312 2.0547,2.5938 2.0547,4.25 z"
         id="path253" /><path
         d="m 404.13,404.41 v -57.477 c -0.0234,-1.4531 -0.62891,-2.8359 -1.6836,-3.8398 -1.0508,-1.0039 -2.4609,-1.543 -3.9141,-1.4961 h -10.211 c -0.63672,-0.004 -1.2695,0.10547 -1.8672,0.31641 l -13.609,4.9102 c -2.668,0.96094 -4.1484,3.8125 -3.3984,6.5508 l 1.7539,6.3828 h 0.004 c 0.78125,2.8281 3.6602,4.5234 6.5117,3.8477 1.6211,-0.39062 3.3281,-0.0156 4.6328,1.0156 1.3086,1.0273 2.0703,2.6016 2.0703,4.2656 v 35.617 c 0,3 2.4297,5.4297 5.4297,5.4297 h 8.6836 c 1.4844,0.043 2.918,-0.52344 3.9766,-1.5664 1.0586,-1.043 1.6406,-2.4727 1.6211,-3.957 z"
         id="path263" /><path
         d="m 579.6,404.41 v -57.477 c 0,-3 -2.4336,-5.4297 -5.4336,-5.4297 h -10.211 c -0.63672,-0.004 -1.2656,0.10547 -1.8672,0.31641 l -13.609,4.9102 h 0.004 c -2.6719,0.96094 -4.1523,3.8164 -3.3984,6.5508 l 1.7734,6.3828 c 0.76562,2.832 3.6445,4.5352 6.4961,3.8477 1.6172,-0.39062 3.3242,-0.0156 4.6328,1.0156 1.3047,1.0312 2.0664,2.6016 2.0664,4.2656 v 35.617 c 0.0117,2.9961 2.4375,5.4219 5.4336,5.4297 h 8.6602 c 1.4453,0.008 2.832,-0.5625 3.8555,-1.582 1.0195,-1.0195 1.5977,-2.4062 1.5977,-3.8477 z"
         id="path265" /><path
         d="m 442.64,339.94 c -9.1836,0 -16.277,3.2422 -21.281,9.7266 -5.0039,6.4844 -7.4922,15.152 -7.4648,26.004 0,10.891 2.4883,19.562 7.4648,26.02 4.9766,6.457 12.07,9.6992 21.281,9.7266 9.1719,0 16.266,-3.2422 21.281,-9.7266 5.015,-6.4844 7.5039,-15.156 7.4648,-26.02 0,-10.863 -2.4883,-19.531 -7.4648,-26.004 -4.9805,-6.4727 -12.074,-9.7148 -21.281,-9.7266 z m 0,52.527 c -6.2227,0 -9.332,-5.6016 -9.332,-16.801 0,-11.199 3.1094,-16.801 9.332,-16.801 6.2227,0 9.332,5.6016 9.332,16.801 0,11.203 -3.1133,16.801 -9.332,16.801 z"
         id="path267" /><path
         d="m 508.12,411.41 c 9.1602,0 16.254,-3.2422 21.281,-9.7266 5.027,-6.4844 7.5156,-15.156 7.4648,-26.02 0,-10.863 -2.4883,-19.531 -7.4648,-26.004 -4.9766,-6.4727 -12.07,-9.7109 -21.281,-9.7266 -9.1836,0 -16.285,3.2422 -21.297,9.7266 -5.0156,6.4844 -7.5039,15.152 -7.4648,26.004 0,10.891 2.4883,19.562 7.4648,26.02 4.9766,6.4609 12.074,9.6992 21.297,9.7266 z m 0,-52.527 c 6.2227,0 9.332,5.6016 9.332,16.801 0,11.1994 -3.1094,16.801 -9.332,16.801 -6.2226,0 -9.332,-5.6016 -9.332,-16.801 0,-11.203 3.1094,-16.801 9.332,-16.801 z"
         id="path269" /><path
         d="m 147.86,434.65 c -9.1836,0 -16.277,3.2344 -21.281,9.707 -5.004,6.4726 -7.4922,15.145 -7.4648,26.02 0,10.891 2.4883,19.562 7.4648,26.02 4.9766,6.457 12.07,9.6953 21.281,9.707 9.1602,0 16.254,-3.2344 21.281,-9.707 5.0273,-6.4727 7.5156,-15.145 7.4648,-26.02 0,-10.863 -2.4883,-19.539 -7.4648,-26.02 -4.9805,-6.4844 -12.074,-9.7188 -21.281,-9.707 z m 0,52.527 c -6.2227,0 -9.332,-5.6016 -9.332,-16.801 0,-11.199 3.1094,-16.801 9.332,-16.801 6.2226,0 9.332,5.6016 9.332,16.801 0,11.203 -3.1094,16.809 -9.332,16.82 z"
         id="path271" /><path
         d="m 211.34,434.65 c -9.1602,0 -16.254,3.2344 -21.281,9.707 -5.027,6.4726 -7.5156,15.145 -7.4648,26.02 0,10.891 2.4883,19.562 7.4648,26.02 4.9766,6.457 12.07,9.6953 21.281,9.707 9.1836,0 16.277,-3.2344 21.281,-9.707 5.0039,-6.4727 7.4922,-15.145 7.4648,-26.02 0,-10.863 -2.4883,-19.539 -7.4648,-26.02 -4.9805,-6.4844 -12.07,-9.7188 -21.281,-9.707 z m 0,52.527 c -6.2227,0 -9.332,-5.6016 -9.332,-16.801 0,-11.199 3.1094,-16.801 9.332,-16.801 6.2226,0 9.332,5.6016 9.332,16.801 0,11.203 -3.1094,16.809 -9.332,16.82 z"
         id="path273" /><path
         d="m 276.83,434.65 c -9.1836,0 -16.277,3.2344 -21.281,9.707 -5.004,6.4726 -7.4922,15.145 -7.4648,26.02 0,10.891 2.4883,19.562 7.4648,26.02 4.9766,6.457 12.07,9.6953 21.281,9.707 9.1836,0 16.277,-3.2344 21.281,-9.707 5.0039,-6.4727 7.4922,-15.145 7.4648,-26.02 0,-10.863 -2.4883,-19.539 -7.4648,-26.02 -4.9805,-6.4844 -12.074,-9.7188 -21.281,-9.707 z m 0,52.527 c -6.2227,0 -9.332,-5.6016 -9.332,-16.801 0,-11.199 3.1094,-16.801 9.332,-16.801 6.2226,0 9.332,5.6016 9.332,16.801 0,11.203 -3.1094,16.809 -9.332,16.82 z"
         id="path275" /><path
         d="m 309.92,448 1.7734,6.3828 c 0.77734,2.8242 3.6484,4.5234 6.4961,3.8477 1.6172,-0.39062 3.3242,-0.0156 4.6328,1.0156 1.3086,1.0273 2.0703,2.6016 2.0703,4.2656 v 35.617 c 0.008,2.9961 2.4336,5.4219 5.4297,5.4297 h 8.6641 c 1.4375,0 2.8203,-0.57031 3.8398,-1.5898 1.0195,-1.01949 1.5898,-2.3984 1.5898,-3.8398 v -57.477 c 0,-3 -2.4297,-5.4297 -5.4297,-5.4297 h -10.211 c -0.63672,-0.0117 -1.2695,0.0977 -1.8672,0.31641 l -13.609,4.9102 c -2.6602,0.96875 -4.1328,3.8203 -3.3789,6.5508 z"
         id="path277" /><path
         d="m 383.02,434.65 c -9.1836,0 -16.277,3.2344 -21.281,9.707 -5.0039,6.4727 -7.4922,15.145 -7.4648,26.02 0,10.891 2.4883,19.562 7.4648,26.02 4.9766,6.457 12.07,9.6953 21.281,9.707 9.1836,0 16.277,-3.2344 21.281,-9.707 5.0039,-6.4727 7.4922,-15.145 7.4648,-26.02 0,-10.863 -2.4883,-19.539 -7.4648,-26.02 -4.9766,-6.4844 -12.07,-9.7188 -21.281,-9.707 z m 0,52.527 c -6.2227,0 -9.332,-5.6016 -9.332,-16.801 0,-11.199 3.1094,-16.801 9.332,-16.801 6.2227,0 9.332,5.6016 9.332,16.801 0.004,11.203 -3.1094,16.809 -9.332,16.82 z"
         id="path279" /><path
         d="m 448.5,434.65 c -9.1836,0 -16.277,3.2344 -21.281,9.707 -5.004,6.4726 -7.4922,15.145 -7.4648,26.02 0,10.891 2.4883,19.562 7.4648,26.02 4.9766,6.457 12.07,9.6953 21.281,9.707 9.1836,0 16.277,-3.2344 21.281,-9.707 5.0039,-6.4727 7.4922,-15.145 7.4648,-26.02 0,-10.863 -2.4883,-19.539 -7.4648,-26.02 -4.9805,-6.4844 -12.074,-9.7188 -21.281,-9.707 z m 0,52.527 c -6.2227,0 -9.332,-5.6016 -9.332,-16.801 0,-11.199 3.1094,-16.801 9.332,-16.801 6.2226,0 9.332,5.6016 9.332,16.801 0,11.203 -3.1094,16.809 -9.332,16.82 z"
         id="path281" /><path
         d="m 481.6,448 1.7734,6.3828 c 0.77344,2.8242 3.6484,4.5234 6.4961,3.8477 1.6172,-0.39062 3.3242,-0.0156 4.6289,1.0156 1.3086,1.0273 2.0703,2.6016 2.0703,4.2656 v 35.617 c 0.0117,2.9961 2.4375,5.4219 5.4336,5.4297 h 8.6602 c 1.4414,0 2.8203,-0.57031 3.8398,-1.5898 1.0195,-1.0195 1.5938,-2.3984 1.5938,-3.8398 v -57.477 c 0,-3 -2.4336,-5.4297 -5.4336,-5.4297 h -10.211 c -0.63672,-0.0117 -1.2695,0.0977 -1.8672,0.31641 l -13.609,4.9102 h 0.004 c -2.6641,0.96875 -4.1367,3.8203 -3.3789,6.5508 z"
         id="path283" /><path
         d="m 556.7,434.65 c -9.1836,0 -16.285,3.2344 -21.297,9.707 -5.0156,6.4727 -7.5039,15.145 -7.4648,26.02 0,10.891 2.4883,19.562 7.4648,26.02 4.9766,6.457 12.078,9.6953 21.297,9.707 9.1602,0 16.254,-3.2344 21.281,-9.707 5.0273,-6.4727 7.5156,-15.145 7.4648,-26.02 0,-10.863 -2.4883,-19.539 -7.4648,-26.02 -4.9766,-6.4844 -12.07,-9.7188 -21.281,-9.707 z m 0,52.527 c -6.2227,0 -9.332,-5.6016 -9.332,-16.801 0,-11.199 3.1094,-16.801 9.332,-16.801 6.2227,0 9.332,5.6016 9.332,16.801 0.004,11.203 -3.1094,16.809 -9.332,16.82 z"
         id="path285" /></g><g
       id="g942"
       transform="matrix(0.35277778,0,0,0.35277778,-19.30345,119.0182)"
       inkscape:label="g942"
       inkscape:export-filename="stickyIcon.svg"
       inkscape:export-xdpi="96"
       inkscape:export-ydpi="96"><path
         d="m 496.06,63.789 c -10.461,-10.461 -27.48,-10.461 -37.941,0 l -214.35,214.35 c -1.0508,1.0508 -1.6406,2.4727 -1.6406,3.9609 0,1.4844 0.58984,2.9102 1.6406,3.9609 l 5.875,5.875 -48.152,48.152 c -8.3906,8.3906 -8.3906,22.043 0,30.438 l 57.957,57.957 c 4.1953,4.1953 9.707,6.293 15.219,6.293 5.5078,0 11.023,-2.1016 15.219,-6.293 l 48.152,-48.152 5.875,5.875 c 1.0938,1.0938 2.5273,1.6406 3.9609,1.6406 1.4336,0 2.8672,-0.54688 3.9609,-1.6406 l 214.35,-214.35 c 10.461,-10.461 10.461,-27.48 0,-37.941 z m -97.387,259.74 -92.227,-92.227 115.63,-115.64 92.227,92.227 z m 64.707,-182.4 47.09,-47.09 25.465,25.465 -47.09,47.09 z m 2.6562,-69.418 c 5.9062,-5.9023 16.199,-5.9023 22.105,0 l 14.41,14.41 -47.09,47.09 -25.461,-25.461 z m -184.07,348.85 c -4.0234,4.0234 -10.578,4.0234 -14.602,0 L 209.4032,362.6 c -4.0234,-4.0234 -4.0234,-10.574 0,-14.598 l 48.152,-48.152 72.559,72.559 z m 65.906,-46.242 -92.227,-92.227 42.879,-42.879 92.227,92.227 z m 210.39,-210.39 -36.039,36.039 -25.461,-25.461 47.09,-47.09 14.41,14.41 c 2.9492,2.9531 4.5781,6.875 4.5781,11.051 0,4.1758 -1.625,8.0977 -4.5781,11.051 z"
         id="path866"
         clip-path="url(#clipPath1370)" /></g><path
       style="fill:none;stroke-width:0"
       d="m 476.99902,843.15516 c -3.53501,-1.27927 -5.40712,-5.56156 -5.68995,-13.01524 -0.38696,-10.19799 2.43798,-15.87313 7.91312,-15.897 4.20725,-0.0184 6.60925,2.61269 7.73717,8.47492 0.50054,2.60155 0.48873,9.60639 -0.021,12.46751 -0.48619,2.72886 -1.99735,5.87964 -3.29447,6.869 -1.83272,1.39788 -4.57059,1.85145 -6.64485,1.10081 z"
       id="path1346"
       transform="scale(0.26458333)"
       inkscape:label="path1346" /></g></svg>
